<!DOCTYPE svg PUBLIC "-//W3C//DTD SVG 1.1//EN" "http://www.w3.org/Graphics/SVG/1.1/DTD/svg11.dtd">
<svg xmlns="http://www.w3.org/2000/svg" width="1000px" height="1000px" viewBox="0 0 20000 20000">
  <polygon points="7809,7000 7191,7000 7000,7588 7500,7951 8000,7588" fill="#ED6E46" />
<polygon points="7191,7000 6691,6637 6191,7000 6382,7588 7000,7588" fill="#4286f4" />
<polygon points="8000,6412 7500,6049 7000,6412 7191,7000 7809,7000" fill="#4286f4" />
<polygon points="8809,7000 8309,6637 7809,7000 8000,7588 8618,7588" fill="#4286f4" />
<polygon points="8500,7951 8000,7588 7500,7951 7691,8539 8309,8539" fill="#4286f4" />
<polygon points="7500,7951 7000,7588 6500,7951 6691,8539 7309,8539" fill="#4286f4" />
<polygon points="6500,6049 5882,6049 5691,6637 6191,7000 6691,6637" fill="#ED6E46" />
<polygon points="7500,6049 6882,6049 6691,6637 7191,7000 7691,6637" fill="#ED6E46" />
<polygon points="8309,5461 7691,5461 7500,6049 8000,6412 8500,6049" fill="#ED6E46" />
<polygon points="8618,6412 8000,6412 7809,7000 8309,7363 8809,7000" fill="#ED6E46" />
<polygon points="9427,7000 8809,7000 8618,7588 9118,7951 9618,7588" fill="#ED6E46" />
<polygon points="8618,7588 8000,7588 7809,8176 8309,8539 8809,8176" fill="#ED6E46" />
<polygon points="8309,8539 7691,8539 7500,9127 8000,9490 8500,9127" fill="#ED6E46" />
<polygon points="7500,7951 6882,7951 6691,8539 7191,8902 7691,8539" fill="#ED6E46" />
<polygon points="6500,7951 5882,7951 5691,8539 6191,8902 6691,8539" fill="#ED6E46" />
<polygon points="6809,7000 6191,7000 6000,7588 6500,7951 7000,7588" fill="#ED6E46" />
<polygon points="5882,6049 5382,5686 4882,6049 5073,6637 5691,6637" fill="#4286f4" />
<polygon points="6691,5461 6191,5098 5691,5461 5882,6049 6500,6049" fill="#4286f4" />
<polygon points="7691,5461 7191,5098 6691,5461 6882,6049 7500,6049" fill="#4286f4" />
<polygon points="8500,4873 8000,4510 7500,4873 7691,5461 8309,5461" fill="#4286f4" />
<polygon points="9309,5461 8809,5098 8309,5461 8500,6049 9118,6049" fill="#4286f4" />
<polygon points="9618,6412 9118,6049 8618,6412 8809,7000 9427,7000" fill="#4286f4" />
<polygon points="10427,7000 9927,6637 9427,7000 9618,7588 10236,7588" fill="#4286f4" />
<polygon points="10118,7951 9618,7588 9118,7951 9309,8539 9927,8539" fill="#4286f4" />
<polygon points="9309,8539 8809,8176 8309,8539 8500,9127 9118,9127" fill="#4286f4" />
<polygon points="9000,9490 8500,9127 8000,9490 8191,10078 8809,10078" fill="#4286f4" />
<polygon points="8000,9490 7500,9127 7000,9490 7191,10078 7809,10078" fill="#4286f4" />
<polygon points="7191,8902 6691,8539 6191,8902 6382,9490 7000,9490" fill="#4286f4" />
<polygon points="6191,8902 5691,8539 5191,8902 5382,9490 6000,9490" fill="#4286f4" />
<polygon points="5882,7951 5382,7588 4882,7951 5073,8539 5691,8539" fill="#4286f4" />
<polygon points="6191,7000 5691,6637 5191,7000 5382,7588 6000,7588" fill="#4286f4" />
<polygon points="6191,5098 5573,5098 5382,5686 5882,6049 6382,5686" fill="#ED6E46" />
<polygon points="7000,4510 6382,4510 6191,5098 6691,5461 7191,5098" fill="#ED6E46" />
<polygon points="7000,4510 6382,4510 6191,5098 6691,5461 7191,5098" fill="#ED6E46" />
<polygon points="8000,4510 7382,4510 7191,5098 7691,5461 8191,5098" fill="#ED6E46" />
<polygon points="9118,4873 8500,4873 8309,5461 8809,5824 9309,5461" fill="#ED6E46" />
<polygon points="9927,5461 9309,5461 9118,6049 9618,6412 10118,6049" fill="#ED6E46" />
<polygon points="9927,5461 9309,5461 9118,6049 9618,6412 10118,6049" fill="#ED6E46" />
<polygon points="10236,6412 9618,6412 9427,7000 9927,7363 10427,7000" fill="#ED6E46" />
<polygon points="10236,7588 9618,7588 9427,8176 9927,8539 10427,8176" fill="#ED6E46" />
<polygon points="9927,8539 9309,8539 9118,9127 9618,9490 10118,9127" fill="#ED6E46" />
<polygon points="9927,8539 9309,8539 9118,9127 9618,9490 10118,9127" fill="#ED6E46" />
<polygon points="9118,9127 8500,9127 8309,9715 8809,10078 9309,9715" fill="#ED6E46" />
<polygon points="8000,9490 7382,9490 7191,10078 7691,10441 8191,10078" fill="#ED6E46" />
<polygon points="7000,9490 6382,9490 6191,10078 6691,10441 7191,10078" fill="#ED6E46" />
<polygon points="7000,9490 6382,9490 6191,10078 6691,10441 7191,10078" fill="#ED6E46" />
<polygon points="6191,8902 5573,8902 5382,9490 5882,9853 6382,9490" fill="#ED6E46" />
<polygon points="5500,7951 4882,7951 4691,8539 5191,8902 5691,8539" fill="#ED6E46" />
<polygon points="5191,7000 4573,7000 4382,7588 4882,7951 5382,7588" fill="#ED6E46" />
<polygon points="5191,7000 4573,7000 4382,7588 4882,7951 5382,7588" fill="#ED6E46" />
<polygon points="5500,6049 4882,6049 4691,6637 5191,7000 5691,6637" fill="#ED6E46" />
<polygon points="6382,4510 5882,4147 5382,4510 5573,5098 6191,5098" fill="#4286f4" />
<polygon points="6382,4510 5882,4147 5382,4510 5573,5098 6191,5098" fill="#4286f4" />
<polygon points="7191,3922 6691,3559 6191,3922 6382,4510 7000,4510" fill="#4286f4" />
<polygon points="7191,3922 6691,3559 6191,3922 6382,4510 7000,4510" fill="#4286f4" />
<polygon points="8191,3922 7691,3559 7191,3922 7382,4510 8000,4510" fill="#4286f4" />
<polygon points="10118,4873 9618,4510 9118,4873 9309,5461 9927,5461" fill="#4286f4" />
<polygon points="10118,4873 9618,4510 9118,4873 9309,5461 9927,5461" fill="#4286f4" />
<polygon points="10927,5461 10427,5098 9927,5461 10118,6049 10736,6049" fill="#4286f4" />
<polygon points="10927,5461 10427,5098 9927,5461 10118,6049 10736,6049" fill="#4286f4" />
<polygon points="11236,6412 10736,6049 10236,6412 10427,7000 11045,7000" fill="#4286f4" />
<polygon points="10927,8539 10427,8176 9927,8539 10118,9127 10736,9127" fill="#4286f4" />
<polygon points="10927,8539 10427,8176 9927,8539 10118,9127 10736,9127" fill="#4286f4" />
<polygon points="10618,9490 10118,9127 9618,9490 9809,10078 10427,10078" fill="#4286f4" />
<polygon points="10618,9490 10118,9127 9618,9490 9809,10078 10427,10078" fill="#4286f4" />
<polygon points="9809,10078 9309,9715 8809,10078 9000,10666 9618,10666" fill="#4286f4" />
<polygon points="7691,10441 7191,10078 6691,10441 6882,11029 7500,11029" fill="#4286f4" />
<polygon points="7691,10441 7191,10078 6691,10441 6882,11029 7500,11029" fill="#4286f4" />
<polygon points="6691,10441 6191,10078 5691,10441 5882,11029 6500,11029" fill="#4286f4" />
<polygon points="6691,10441 6191,10078 5691,10441 5882,11029 6500,11029" fill="#4286f4" />
<polygon points="5882,9853 5382,9490 4882,9853 5073,10441 5691,10441" fill="#4286f4" />
<polygon points="4882,7951 4382,7588 3882,7951 4073,8539 4691,8539" fill="#4286f4" />
<polygon points="4882,7951 4382,7588 3882,7951 4073,8539 4691,8539" fill="#4286f4" />
<polygon points="4573,7000 4073,6637 3573,7000 3764,7588 4382,7588" fill="#4286f4" />
<polygon points="4573,7000 4073,6637 3573,7000 3764,7588 4382,7588" fill="#4286f4" />
<polygon points="4882,6049 4382,5686 3882,6049 4073,6637 4691,6637" fill="#4286f4" />
<polygon points="6691,3559 6073,3559 5882,4147 6382,4510 6882,4147" fill="#ED6E46" />
<polygon points="6691,3559 6073,3559 5882,4147 6382,4510 6882,4147" fill="#ED6E46" />
<polygon points="7500,2971 6882,2971 6691,3559 7191,3922 7691,3559" fill="#ED6E46" />
<polygon points="7500,2971 6882,2971 6691,3559 7191,3922 7691,3559" fill="#ED6E46" />
<polygon points="7500,2971 6882,2971 6691,3559 7191,3922 7691,3559" fill="#ED6E46" />
<polygon points="8500,2971 7882,2971 7691,3559 8191,3922 8691,3559" fill="#ED6E46" />
<polygon points="10736,4873 10118,4873 9927,5461 10427,5824 10927,5461" fill="#ED6E46" />
<polygon points="10736,4873 10118,4873 9927,5461 10427,5824 10927,5461" fill="#ED6E46" />
<polygon points="11545,5461 10927,5461 10736,6049 11236,6412 11736,6049" fill="#ED6E46" />
<polygon points="11545,5461 10927,5461 10736,6049 11236,6412 11736,6049" fill="#ED6E46" />
<polygon points="11545,5461 10927,5461 10736,6049 11236,6412 11736,6049" fill="#ED6E46" />
<polygon points="11854,6412 11236,6412 11045,7000 11545,7363 12045,7000" fill="#ED6E46" />
<polygon points="10736,9127 10118,9127 9927,9715 10427,10078 10927,9715" fill="#ED6E46" />
<polygon points="10736,9127 10118,9127 9927,9715 10427,10078 10927,9715" fill="#ED6E46" />
<polygon points="10427,10078 9809,10078 9618,10666 10118,11029 10618,10666" fill="#ED6E46" />
<polygon points="10427,10078 9809,10078 9618,10666 10118,11029 10618,10666" fill="#ED6E46" />
<polygon points="10427,10078 9809,10078 9618,10666 10118,11029 10618,10666" fill="#ED6E46" />
<polygon points="9618,10666 9000,10666 8809,11254 9309,11617 9809,11254" fill="#ED6E46" />
<polygon points="6691,10441 6073,10441 5882,11029 6382,11392 6882,11029" fill="#ED6E46" />
<polygon points="6691,10441 6073,10441 5882,11029 6382,11392 6882,11029" fill="#ED6E46" />
<polygon points="5691,10441 5073,10441 4882,11029 5382,11392 5882,11029" fill="#ED6E46" />
<polygon points="5691,10441 5073,10441 4882,11029 5382,11392 5882,11029" fill="#ED6E46" />
<polygon points="5691,10441 5073,10441 4882,11029 5382,11392 5882,11029" fill="#ED6E46" />
<polygon points="4882,9853 4264,9853 4073,10441 4573,10804 5073,10441" fill="#ED6E46" />
<polygon points="4191,7000 3573,7000 3382,7588 3882,7951 4382,7588" fill="#ED6E46" />
<polygon points="4191,7000 3573,7000 3382,7588 3882,7951 4382,7588" fill="#ED6E46" />
<polygon points="3882,6049 3264,6049 3073,6637 3573,7000 4073,6637" fill="#ED6E46" />
<polygon points="3882,6049 3264,6049 3073,6637 3573,7000 4073,6637" fill="#ED6E46" />
<polygon points="3882,6049 3264,6049 3073,6637 3573,7000 4073,6637" fill="#ED6E46" />
<polygon points="4191,5098 3573,5098 3382,5686 3882,6049 4382,5686" fill="#ED6E46" />
<polygon points="6882,2971 6382,2608 5882,2971 6073,3559 6691,3559" fill="#4286f4" />
<polygon points="6882,2971 6382,2608 5882,2971 6073,3559 6691,3559" fill="#4286f4" />
<polygon points="6882,2971 6382,2608 5882,2971 6073,3559 6691,3559" fill="#4286f4" />
<polygon points="7691,2383 7191,2020 6691,2383 6882,2971 7500,2971" fill="#4286f4" />
<polygon points="7691,2383 7191,2020 6691,2383 6882,2971 7500,2971" fill="#4286f4" />
<polygon points="7691,2383 7191,2020 6691,2383 6882,2971 7500,2971" fill="#4286f4" />
<polygon points="8691,2383 8191,2020 7691,2383 7882,2971 8500,2971" fill="#4286f4" />
<polygon points="11736,4873 11236,4510 10736,4873 10927,5461 11545,5461" fill="#4286f4" />
<polygon points="11736,4873 11236,4510 10736,4873 10927,5461 11545,5461" fill="#4286f4" />
<polygon points="11736,4873 11236,4510 10736,4873 10927,5461 11545,5461" fill="#4286f4" />
<polygon points="12545,5461 12045,5098 11545,5461 11736,6049 12354,6049" fill="#4286f4" />
<polygon points="12545,5461 12045,5098 11545,5461 11736,6049 12354,6049" fill="#4286f4" />
<polygon points="12545,5461 12045,5098 11545,5461 11736,6049 12354,6049" fill="#4286f4" />
<polygon points="12854,6412 12354,6049 11854,6412 12045,7000 12663,7000" fill="#4286f4" />
<polygon points="11427,10078 10927,9715 10427,10078 10618,10666 11236,10666" fill="#4286f4" />
<polygon points="11427,10078 10927,9715 10427,10078 10618,10666 11236,10666" fill="#4286f4" />
<polygon points="11427,10078 10927,9715 10427,10078 10618,10666 11236,10666" fill="#4286f4" />
<polygon points="11118,11029 10618,10666 10118,11029 10309,11617 10927,11617" fill="#4286f4" />
<polygon points="11118,11029 10618,10666 10118,11029 10309,11617 10927,11617" fill="#4286f4" />
<polygon points="11118,11029 10618,10666 10118,11029 10309,11617 10927,11617" fill="#4286f4" />
<polygon points="10309,11617 9809,11254 9309,11617 9500,12205 10118,12205" fill="#4286f4" />
<polygon points="6382,11392 5882,11029 5382,11392 5573,11980 6191,11980" fill="#4286f4" />
<polygon points="6382,11392 5882,11029 5382,11392 5573,11980 6191,11980" fill="#4286f4" />
<polygon points="6382,11392 5882,11029 5382,11392 5573,11980 6191,11980" fill="#4286f4" />
<polygon points="5382,11392 4882,11029 4382,11392 4573,11980 5191,11980" fill="#4286f4" />
<polygon points="5382,11392 4882,11029 4382,11392 4573,11980 5191,11980" fill="#4286f4" />
<polygon points="5382,11392 4882,11029 4382,11392 4573,11980 5191,11980" fill="#4286f4" />
<polygon points="4573,10804 4073,10441 3573,10804 3764,11392 4382,11392" fill="#4286f4" />
<polygon points="3573,7000 3073,6637 2573,7000 2764,7588 3382,7588" fill="#4286f4" />
<polygon points="3573,7000 3073,6637 2573,7000 2764,7588 3382,7588" fill="#4286f4" />
<polygon points="3573,7000 3073,6637 2573,7000 2764,7588 3382,7588" fill="#4286f4" />
<polygon points="3264,6049 2764,5686 2264,6049 2455,6637 3073,6637" fill="#4286f4" />
<polygon points="3264,6049 2764,5686 2264,6049 2455,6637 3073,6637" fill="#4286f4" />
<polygon points="3264,6049 2764,5686 2264,6049 2455,6637 3073,6637" fill="#4286f4" />
<polygon points="3573,5098 3073,4735 2573,5098 2764,5686 3382,5686" fill="#4286f4" />
<polygon points="7191,2020 6573,2020 6382,2608 6882,2971 7382,2608" fill="#ED6E46" />
<polygon points="7191,2020 6573,2020 6382,2608 6882,2971 7382,2608" fill="#ED6E46" />
<polygon points="7191,2020 6573,2020 6382,2608 6882,2971 7382,2608" fill="#ED6E46" />
<polygon points="8000,1432 7382,1432 7191,2020 7691,2383 8191,2020" fill="#ED6E46" />
<polygon points="8000,1432 7382,1432 7191,2020 7691,2383 8191,2020" fill="#ED6E46" />
<polygon points="8000,1432 7382,1432 7191,2020 7691,2383 8191,2020" fill="#ED6E46" />
<polygon points="8000,1432 7382,1432 7191,2020 7691,2383 8191,2020" fill="#ED6E46" />
<polygon points="9000,1432 8382,1432 8191,2020 8691,2383 9191,2020" fill="#ED6E46" />
<polygon points="12354,4873 11736,4873 11545,5461 12045,5824 12545,5461" fill="#ED6E46" />
<polygon points="12354,4873 11736,4873 11545,5461 12045,5824 12545,5461" fill="#ED6E46" />
<polygon points="12354,4873 11736,4873 11545,5461 12045,5824 12545,5461" fill="#ED6E46" />
<polygon points="13163,5461 12545,5461 12354,6049 12854,6412 13354,6049" fill="#ED6E46" />
<polygon points="13163,5461 12545,5461 12354,6049 12854,6412 13354,6049" fill="#ED6E46" />
<polygon points="13163,5461 12545,5461 12354,6049 12854,6412 13354,6049" fill="#ED6E46" />
<polygon points="13163,5461 12545,5461 12354,6049 12854,6412 13354,6049" fill="#ED6E46" />
<polygon points="13472,6412 12854,6412 12663,7000 13163,7363 13663,7000" fill="#ED6E46" />
<polygon points="11236,10666 10618,10666 10427,11254 10927,11617 11427,11254" fill="#ED6E46" />
<polygon points="11236,10666 10618,10666 10427,11254 10927,11617 11427,11254" fill="#ED6E46" />
<polygon points="11236,10666 10618,10666 10427,11254 10927,11617 11427,11254" fill="#ED6E46" />
<polygon points="10927,11617 10309,11617 10118,12205 10618,12568 11118,12205" fill="#ED6E46" />
<polygon points="10927,11617 10309,11617 10118,12205 10618,12568 11118,12205" fill="#ED6E46" />
<polygon points="10927,11617 10309,11617 10118,12205 10618,12568 11118,12205" fill="#ED6E46" />
<polygon points="10927,11617 10309,11617 10118,12205 10618,12568 11118,12205" fill="#ED6E46" />
<polygon points="10118,12205 9500,12205 9309,12793 9809,13156 10309,12793" fill="#ED6E46" />
<polygon points="5382,11392 4764,11392 4573,11980 5073,12343 5573,11980" fill="#ED6E46" />
<polygon points="5382,11392 4764,11392 4573,11980 5073,12343 5573,11980" fill="#ED6E46" />
<polygon points="5382,11392 4764,11392 4573,11980 5073,12343 5573,11980" fill="#ED6E46" />
<polygon points="4382,11392 3764,11392 3573,11980 4073,12343 4573,11980" fill="#ED6E46" />
<polygon points="4382,11392 3764,11392 3573,11980 4073,12343 4573,11980" fill="#ED6E46" />
<polygon points="4382,11392 3764,11392 3573,11980 4073,12343 4573,11980" fill="#ED6E46" />
<polygon points="4382,11392 3764,11392 3573,11980 4073,12343 4573,11980" fill="#ED6E46" />
<polygon points="3573,10804 2955,10804 2764,11392 3264,11755 3764,11392" fill="#ED6E46" />
<polygon points="2882,6049 2264,6049 2073,6637 2573,7000 3073,6637" fill="#ED6E46" />
<polygon points="2882,6049 2264,6049 2073,6637 2573,7000 3073,6637" fill="#ED6E46" />
<polygon points="2882,6049 2264,6049 2073,6637 2573,7000 3073,6637" fill="#ED6E46" />
<polygon points="2573,5098 1955,5098 1764,5686 2264,6049 2764,5686" fill="#ED6E46" />
<polygon points="2573,5098 1955,5098 1764,5686 2264,6049 2764,5686" fill="#ED6E46" />
<polygon points="2573,5098 1955,5098 1764,5686 2264,6049 2764,5686" fill="#ED6E46" />
<polygon points="2573,5098 1955,5098 1764,5686 2264,6049 2764,5686" fill="#ED6E46" />
<polygon points="2882,4147 2264,4147 2073,4735 2573,5098 3073,4735" fill="#ED6E46" />
<polygon points="7382,1432 6882,1069 6382,1432 6573,2020 7191,2020" fill="#4286f4" />
<polygon points="7382,1432 6882,1069 6382,1432 6573,2020 7191,2020" fill="#4286f4" />
<polygon points="7382,1432 6882,1069 6382,1432 6573,2020 7191,2020" fill="#4286f4" />
<polygon points="7382,1432 6882,1069 6382,1432 6573,2020 7191,2020" fill="#4286f4" />
<polygon points="8191,844 7691,481 7191,844 7382,1432 8000,1432" fill="#4286f4" />
<polygon points="8191,844 7691,481 7191,844 7382,1432 8000,1432" fill="#4286f4" />
<polygon points="8191,844 7691,481 7191,844 7382,1432 8000,1432" fill="#4286f4" />
<polygon points="8191,844 7691,481 7191,844 7382,1432 8000,1432" fill="#4286f4" />
<polygon points="9191,844 8691,481 8191,844 8382,1432 9000,1432" fill="#4286f4" />
<polygon points="13354,4873 12854,4510 12354,4873 12545,5461 13163,5461" fill="#4286f4" />
<polygon points="13354,4873 12854,4510 12354,4873 12545,5461 13163,5461" fill="#4286f4" />
<polygon points="13354,4873 12854,4510 12354,4873 12545,5461 13163,5461" fill="#4286f4" />
<polygon points="13354,4873 12854,4510 12354,4873 12545,5461 13163,5461" fill="#4286f4" />
<polygon points="14163,5461 13663,5098 13163,5461 13354,6049 13972,6049" fill="#4286f4" />
<polygon points="14163,5461 13663,5098 13163,5461 13354,6049 13972,6049" fill="#4286f4" />
<polygon points="14163,5461 13663,5098 13163,5461 13354,6049 13972,6049" fill="#4286f4" />
<polygon points="14163,5461 13663,5098 13163,5461 13354,6049 13972,6049" fill="#4286f4" />
<polygon points="14472,6412 13972,6049 13472,6412 13663,7000 14281,7000" fill="#4286f4" />
<polygon points="11927,11617 11427,11254 10927,11617 11118,12205 11736,12205" fill="#4286f4" />
<polygon points="11927,11617 11427,11254 10927,11617 11118,12205 11736,12205" fill="#4286f4" />
<polygon points="11927,11617 11427,11254 10927,11617 11118,12205 11736,12205" fill="#4286f4" />
<polygon points="11927,11617 11427,11254 10927,11617 11118,12205 11736,12205" fill="#4286f4" />
<polygon points="11618,12568 11118,12205 10618,12568 10809,13156 11427,13156" fill="#4286f4" />
<polygon points="11618,12568 11118,12205 10618,12568 10809,13156 11427,13156" fill="#4286f4" />
<polygon points="11618,12568 11118,12205 10618,12568 10809,13156 11427,13156" fill="#4286f4" />
<polygon points="11618,12568 11118,12205 10618,12568 10809,13156 11427,13156" fill="#4286f4" />
<polygon points="10809,13156 10309,12793 9809,13156 10000,13744 10618,13744" fill="#4286f4" />
<polygon points="5073,12343 4573,11980 4073,12343 4264,12931 4882,12931" fill="#4286f4" />
<polygon points="5073,12343 4573,11980 4073,12343 4264,12931 4882,12931" fill="#4286f4" />
<polygon points="5073,12343 4573,11980 4073,12343 4264,12931 4882,12931" fill="#4286f4" />
<polygon points="5073,12343 4573,11980 4073,12343 4264,12931 4882,12931" fill="#4286f4" />
<polygon points="4073,12343 3573,11980 3073,12343 3264,12931 3882,12931" fill="#4286f4" />
<polygon points="4073,12343 3573,11980 3073,12343 3264,12931 3882,12931" fill="#4286f4" />
<polygon points="4073,12343 3573,11980 3073,12343 3264,12931 3882,12931" fill="#4286f4" />
<polygon points="4073,12343 3573,11980 3073,12343 3264,12931 3882,12931" fill="#4286f4" />
<polygon points="3264,11755 2764,11392 2264,11755 2455,12343 3073,12343" fill="#4286f4" />
<polygon points="2264,6049 1764,5686 1264,6049 1455,6637 2073,6637" fill="#4286f4" />
<polygon points="2264,6049 1764,5686 1264,6049 1455,6637 2073,6637" fill="#4286f4" />
<polygon points="2264,6049 1764,5686 1264,6049 1455,6637 2073,6637" fill="#4286f4" />
<polygon points="2264,6049 1764,5686 1264,6049 1455,6637 2073,6637" fill="#4286f4" />
<polygon points="1955,5098 1455,4735 955,5098 1146,5686 1764,5686" fill="#4286f4" />
<polygon points="1955,5098 1455,4735 955,5098 1146,5686 1764,5686" fill="#4286f4" />
<polygon points="1955,5098 1455,4735 955,5098 1146,5686 1764,5686" fill="#4286f4" />
<polygon points="1955,5098 1455,4735 955,5098 1146,5686 1764,5686" fill="#4286f4" />
<polygon points="2264,4147 1764,3784 1264,4147 1455,4735 2073,4735" fill="#4286f4" />
</svg>
